<svg xmlns="http://www.w3.org/2000/svg" viewBox="0 0 520 88" role="img" aria-label="Selfware">
  <rect width="520" height="88" fill="none"/>
  <g fill="#0A1413">
    <path d="M33 15h21c12 0 20 7 20 18 0 10-7 17-19 17H46v23H33V15zm20 25c5 0 8-3 8-7 0-5-3-8-8-8H46v15h7z"/>
    <path d="M84 15h13v58H84V15z"/>
    <path d="M111 31h11v6c3-4 8-8 15-8 11 0 17 7 17 18v26h-13V51c0-7-3-10-9-10s-10 4-10 11v21h-13V31z"/>
    <path d="M166 53c0-12 9-23 23-23 9 0 15 4 19 9l-8 8c-3-3-6-5-11-5-7 0-11 5-11 11 0 7 5 12 12 12 5 0 8-2 11-5l8 7c-4 6-10 10-20 10-14 0-23-10-23-24z"/>
    <path d="M216 53c0-12 9-23 22-23 15 0 22 11 22 24v3h-31c1 6 5 9 11 9 5 0 8-2 12-5l7 6c-5 6-11 10-20 10-14 0-23-10-23-24zm31-4c-1-6-4-10-10-10-5 0-9 4-10 10h20z"/>
    <path d="M270 15h13v58h-13V15z"/>
    <path d="M297 15h13v58h-13V15z"/>
    <path d="M324 31h13l7 26 8-26h11l8 26 8-26h12l-14 42h-12l-8-26-8 26h-12l-13-42z"/>
    <path d="M398 53c0-12 9-23 22-23 15 0 22 11 22 24v3h-31c1 6 5 9 11 9 5 0 8-2 12-5l7 6c-5 6-11 10-20 10-14 0-23-10-23-24zm31-4c-1-6-4-10-10-10-5 0-9 4-10 10h20z"/>
    <path d="M451 31h13v8c2-6 7-10 15-9v13h-1c-9 0-14 5-14 16v14h-13V31z"/>
  </g>
</svg>
